<?xml version="1.0" encoding="UTF-8" standalone="no"?>
<svg width="19px" height="19px" viewBox="0 0 19 19" version="1.1" xmlns="http://www.w3.org/2000/svg" xmlns:xlink="http://www.w3.org/1999/xlink" xmlns:sketch="http://www.bohemiancoding.com/sketch/ns">
    <!-- Generator: Sketch 3.5.1 (25234) - http://www.bohemiancoding.com/sketch -->
    <title>search-blue</title>
    <desc>Created with Sketch.</desc>
    <defs></defs>
    <g id="Page-1" stroke="none" stroke-width="1" fill="none" fill-rule="evenodd" sketch:type="MSPage">
        <g id="search-blue" sketch:type="MSLayerGroup" fill="#3B67B3">
            <path d="M7.5,13 L7.5,13 C10.5375661,13 13,10.5375661 13,7.5 C13,4.46243388 10.5375661,2 7.5,2 C4.46243388,2 2,4.46243388 2,7.5 C2,10.5375661 4.46243388,13 7.5,13 L7.5,13 L7.5,13 Z M7.5,15 L7.5,15 C3.35786438,15 0,11.6421356 0,7.5 C0,3.35786438 3.35786438,0 7.5,0 C11.6421356,0 15,3.35786438 15,7.5 C15,11.6421356 11.6421356,15 7.5,15 L7.5,15 L7.5,15 Z" id="Shape" sketch:type="MSShapeGroup"></path>
            <path d="M11.2928932,12.7071068 L16.9497475,18.363961 L18.363961,16.9497475 L12.7071068,11.2928932 L11.2928932,12.7071068 L11.2928932,12.7071068 L11.2928932,12.7071068 Z" id="Shape" sketch:type="MSShapeGroup"></path>
        </g>
    </g>
</svg>